<?xml version="1.0" encoding="UTF-8"?><svg xmlns="http://www.w3.org/2000/svg" xmlns:xlink="http://www.w3.org/1999/xlink" version="1.1" id="Layer_1" x="0px" y="0px" viewBox="0 0 52 52" xml:space="preserve"><g fill="none" stroke="#000" stroke-width="2" stroke-linecap="round" stroke-linejoin="round" stroke-miterlimit="10"><path d="M45.993 41.138l2.814-5.099c.411-.746.628-1.6.626-2.47l-.003-18.477-6.948.013.003 18.478c.002.87.26 1.723.675 2.467l2.833 5.088z"/><path d="M44.999 9.203l1.864-.004c1.393-.003 2.564 1.223 2.567 2.738v3.155l-6.948.013v-3.154c-.003-1.515 1.124-2.746 2.517-2.748z"/></g><g fill="none" stroke="#000" stroke-width="2" stroke-linecap="round" stroke-linejoin="round" stroke-miterlimit="10"><path d="M35.618 48.691H5.233a2.667 2.667 0 0 1-2.666-2.666V5.975A2.667 2.667 0 0 1 5.233 3.31h30.385a2.667 2.667 0 0 1 2.667 2.666v40.05a2.667 2.667 0 0 1-2.667 2.666z"/><path d="M15.976 19.517h17.583"/><path d="M15.976 29.92h17.583"/><path d="M15.976 40.322h17.583"/><circle cx="9.555542" cy="19.5169067" r="2.5"/><circle cx="9.555542" cy="29.9194336" r="2.5"/><circle cx="9.555542" cy="40.3218994" r="2.5"/></g><g fill="none" stroke="#000" stroke-width="2" stroke-linecap="round" stroke-linejoin="round" stroke-miterlimit="10"><path d="M45.993 41.138l2.814-5.099c.411-.746.628-1.6.626-2.47l-.003-18.477-6.948.013.003 18.478c.002.87.26 1.723.675 2.467l2.833 5.088z"/><path d="M44.999 9.203l1.864-.004c1.393-.003 2.564 1.223 2.567 2.738v3.155l-6.948.013v-3.154c-.003-1.515 1.124-2.746 2.517-2.748z"/></g><g fill="none" stroke="#000" stroke-width="2" stroke-linecap="round" stroke-linejoin="round" stroke-miterlimit="10"><path d="M35.618 48.691H5.233a2.667 2.667 0 0 1-2.666-2.666V5.975A2.667 2.667 0 0 1 5.233 3.31h30.385a2.667 2.667 0 0 1 2.667 2.666v40.05a2.667 2.667 0 0 1-2.667 2.666z"/><path d="M15.976 19.517h17.583"/><path d="M15.976 29.92h17.583"/><path d="M15.976 40.322h17.583"/><circle cx="9.555542" cy="19.5169067" r="2.5"/><circle cx="9.555542" cy="29.9194336" r="2.5"/><circle cx="9.555542" cy="40.3218994" r="2.5"/></g><metadata><rdf:RDF xmlns:rdf="http://www.w3.org/1999/02/22-rdf-syntax-ns#" xmlns:rdfs="http://www.w3.org/2000/01/rdf-schema#" xmlns:dc="http://purl.org/dc/elements/1.1/"><rdf:Description about="https://iconscout.com/legal#licenses" dc:title="edit,pen,write,document" dc:description="edit,pen,write,document" dc:publisher="Iconscout" dc:date="2017-11-11" dc:format="image/svg+xml" dc:language="en"><dc:creator><rdf:Bag><rdf:li>Dinosoft Labs</rdf:li></rdf:Bag></dc:creator></rdf:Description></rdf:RDF></metadata></svg>